P3
24 24
255
177
198
224
181
196
225
191
189
214
196
126
142
183
128
153
194
139
152
189
106
120
185
107
129
196
115
129
185
120
126
185
118
124
202
113
131
199
119
134
199
114
132
200
114
130
192
126
138
195
118
136
199
112
136
190
136
141
188
112
123
201
160
186
199
203
227
201
201
218
196
206
217
171
197
220
174
200
218
196
183
209
195
147
165
192
169
196
190
168
181
189
145
156
184
165
180
187
170
179
189
146
160
189
149
163
191
157
172
190
180
191
195
178
193
187
176
190
198
189
201
192
176
191
188
179
192
192
188
198
193
177
190
205
196
212
206
208
225
203
207
225
209
208
225
168
194
217
176
198
214
203
147
172
195
96
104
188
149
158
188
151
165
187
144
166
190
152
175
182
152
165
194
121
144
197
128
151
195
139
160
196
156
178
193
151
173
200
170
189
205
162
182
198
150
170
197
173
183
197
150
173
201
164
185
197
156
166
200
166
178
198
204
220
195
210
226
172
194
218
188
181
203
199
119
146
209
101
111
196
123
134
190
131
149
189
131
157
191
120
144
193
146
155
188
135
143
187
135
143
196
127
144
202
123
147
194
123
142
196
131
148
206
123
142
194
109
127
201
132
141
196
123
142
200
159
176
181
123
137
187
132
149
200
191
209
201
199
220
174
192
219
176
186
205
176
171
193
190
175
197
180
162
184
175
165
183
176
172
187
176
166
184
181
175
192
170
172
186
172
173
187
182
170
189
187
172
192
178
178
194
181
178
194
187
175
191
177
163
178
188
172
186
180
178
188
187
190
200
199
172
193
196
176
198
188
200
214
188
205
219
170
190
215
171
192
214
180
194
220
176
183
210
155
160
185
156
165
187
150
162
182
156
163
186
150
159
182
146
158
180
153
164
185
158
162
186
166
167
193
166
174
198
164
172
195
157
162
184
157
160
181
162
163
182
156
165
182
166
182
198
200
200
222
199
198
222
188
202
221
189
205
223
173
192
215
177
193
212
182
193
214
174
183
204
156
163
181
160
167
184
159
165
182
154
159
176
159
164
181
163
166
184
168
170
188
173
172
191
170
168
189
164
166
186
160
166
184
162
171
185
160
168
182
168
173
184
167
171
186
172
178
201
194
199
223
195
198
221
196
199
220
196
199
219
183
201
220
170
187
209
174
190
215
182
198
222
179
194
217
179
193
215
180
193
214
181
193
215
184
193
217
187
194
219
193
198
223
193
198
223
193
198
223
192
195
221
188
195
219
185
198
218
184
197
216
186
196
214
192
196
217
192
197
219
187
201
219
188
203
219
192
201
217
189
201
214
153
166
181
132
141
153
149
154
172
193
196
217
198
202
226
191
202
225
186
199
221
188
197
220
191
197
222
193
199
223
195
201
225
196
202
226
195
201
225
192
199
221
190
198
220
188
196
218
188
196
217
190
198
219
192
199
220
191
198
218
191
199
217
193
202
220
195
203
222
197
206
224
132
144
157
116
124
126
94
95
99
109
107
115
145
143
157
177
179
198
194
199
221
194
199
221
191
197
218
193
198
220
196
201
223
199
204
226
199
204
226
199
205
224
200
206
225
198
204
223
196
201
220
196
201
221
199
205
224
198
205
224
197
204
223
196
203
222
196
203
222
196
203
222
194
206
220
184
193
196
141
143
146
92
91
90
84
81
84
104
101
113
142
142
161
179
181
202
195
198
218
201
204
224
204
207
227
204
207
228
204
207
226
204
207
225
204
207
224
199
202
220
194
197
215
194
197
215
194
198
216
191
197
217
189
197
216
190
197
216
190
197
216
190
197
216
197
209
225
200
212
225
201
207
218
177
179
179
117
116
115
84
83
88
93
93
106
128
128
145
173
174
192
202
203
221
208
210
228
205
206
225
202
204
223
200
202
219
199
202
218
199
201
217
195
198
214
196
199
214
197
201
217
195
201
219
193
200
219
195
202
221
194
201
220
191
199
218
205
214
228
206
214
226
208
212
224
214
217
225
175
175
181
92
91
98
76
73
80
91
86
91
105
101
106
140
138
146
181
181
192
203
204
217
206
208
224
202
203
225
197
199
221
194
198
218
193
199
217
194
201
218
194
201
218
194
200
217
194
200
218
195
202
221
193
201
221
191
201
221
212
219
231
212
217
227
211
214
226
208
211
221
203
204
213
124
123
130
71
68
73
87
82
79
84
79
75
84
81
80
99
97
100
132
130
136
167
165
173
190
188
200
203
201
215
203
202
220
195
196
217
192
193
217
197
199
223
196
198
222
194
198
221
194
199
221
192
200
219
191
200
219
212
216
227
211
216
225
211
214
226
208
210
220
211
212
221
137
136
144
72
70
74
87
83
80
83
78
74
84
80
76
86
80
78
83
77
76
89
83
83
107
102
100
131
126
129
155
151
161
163
159
176
182
178
201
203
201
225
204
204
226
202
203
223
198
201
220
194
200
217
191
198
215
213
215
224
212
216
225
212
215
227
213
216
226
204
204
213
113
112
119
47
45
50
58
55
56
63
58
59
76
69
69
87
77
77
93
81
82
90
80
80
80
77
72
70
70
66
62
62
63
58
59
65
77
79
91
122
124
133
159
160
162
180
181
184
194
196
204
201
205
218
200
205
223
209
211
223
210
214
230
209
212
228
212
212
225
157
154
162
101
95
98
65
58
60
37
33
39
51
48
53
68
62
67
74
65
68
88
77
78
91
82
81
86
84
82
85
84
83
73
72
72
55
56
57
46
47
49
62
63
63
72
72
67
78
78
75
107
107
109
133
132
139
158
158
168
207
209
222
206
211
226
209
212
226
200
200
212
149
145
155
140
133
139
151
143
150
100
97
106
45
45
53
53
50
57
50
46
51
96
90
94
156
150
154
160
158
161
128
127
130
72
71
73
98
97
99
112
112
114
89
88
90
66
65
67
67
67
69
131
130
134
166
165
171
163
162
169
210
211
223
208
212
222
209
213
222
209
210
222
210
209
222
211
209
224
215
212
228
189
191
204
144
148
159
146
147
159
148
147
160
168
166
179
202
200
214
206
208
220
192
195
207
154
157
169
163
166
178
178
181
193
177
180
192
159
162
173
156
159
171
178
180
195
191
193
210
194
197
214
192
194
206
188
190
204
185
187
201
183
185
199
182
184
199
178
181
195
179
183
197
173
181
194
170
178
192
170
176
193
171
174
194
173
173
196
169
170
196
160
164
194
161
166
196
167
172
202
165
170
200
161
166
196
165
170
200
170
176
205
170
175
206
160
165
197
152
157
192
150
155
191
102
103
118
97
100
112
94
97
107
93
96
106
88
92
101
85
90
98
88
94
102
80
87
99
77
84
98
78
83
101
83
87
108
101
103
128
113
115
144
108
112
146
106
111
146
107
112
147
108
113
148
110
115
150
111
116
152
113
118
158
117
122
164
119
123
166
120
124
168
119
123
168
115
113
138
112
111
136
114
113
137
113
113
136
111
111
132
112
112
134
111
111
131
109
110
126
110
110
127
109
109
128
110
110
131
108
107
131
115
115
138
112
115
134
105
108
127
107
110
129
108
111
129
106
109
128
101
104
124
104
107
126
106
109
129
107
110
130
109
112
132
109
112
132
109
106
122
104
102
118
98
97
108
94
93
100
94
95
96
93
94
91
88
89
85
86
85
89
82
82
88
79
78
85
80
79
87
78
78
86
80
80
86
79
79
79
72
71
70
69
68
67
67
67
66
66
65
65
65
65
63
65
65
60
64
65
59
65
66
60
66
66
60
64
65
59
66
64
58
66
64
63
63
62
59
61
60
54
66
66
56
64
64
51
60
61
47
57
56
47
57
57
48
60
60
50
61
61
49
63
63
50
63
64
51
66
67
55
64
65
53
58
59
47
56
56
45
57
58
46
59
59
50
60
60
55
58
58
54
57
57
52
56
56
52
57
56
52
