P3
24 24
255
190
52
23
180
36
6
179
32
7
171
27
8
163
28
7
159
29
8
153
28
9
146
26
8
145
26
9
151
26
10
147
28
7
141
30
8
135
28
9
136
28
7
131
28
8
135
28
7
129
28
8
122
48
37
132
67
64
90
42
39
58
25
16
61
18
16
48
13
14
86
25
21
153
26
9
156
26
6
159
25
9
151
22
8
144
23
5
141
25
5
140
26
9
138
25
10
139
24
11
141
24
10
138
27
7
138
31
9
135
29
10
140
30
11
134
33
11
138
30
7
140
33
20
137
93
85
102
94
93
69
60
59
75
41
34
62
27
14
67
30
19
116
44
32
136
22
8
134
23
8
140
22
10
133
21
7
135
22
6
137
22
5
139
25
10
141
26
14
143
24
13
146
25
12
142
29
10
145
35
12
145
32
9
145
31
14
138
35
14
143
30
7
142
51
37
107
89
86
47
55
60
33
37
40
72
56
53
75
40
28
108
43
28
127
45
28
136
22
11
131
23
10
138
22
12
132
22
9
136
24
9
140
23
8
144
26
12
147
27
14
150
25
14
158
27
18
154
29
16
153
39
19
146
40
16
149
45
21
147
51
26
148
48
22
128
65
49
66
64
62
13
18
20
17
11
10
80
34
30
117
37
26
128
31
16
122
32
13
139
21
11
135
22
10
143
23
14
137
23
11
139
25
13
145
24
12
149
28
14
152
30
15
148
37
19
154
56
36
163
51
34
170
59
40
158
59
36
162
58
32
157
55
34
148
54
34
115
61
51
44
40
43
14
17
15
30
16
9
105
26
20
139
25
12
136
24
9
126
27
10
141
21
12
136
20
10
145
22
14
141
24
13
141
24
14
147
25
14
154
32
20
165
49
34
157
62
39
154
76
49
162
57
40
167
52
38
155
49
32
147
46
27
145
50
39
138
58
50
99
56
54
56
49
59
46
48
52
55
44
38
109
41
35
124
35
21
122
25
11
126
25
12
142
21
12
136
21
10
144
21
13
140
23
13
139
25
13
144
25
16
150
36
27
153
53
40
131
49
32
139
66
50
144
62
50
152
74
63
166
104
88
186
137
119
211
166
161
214
184
180
128
124
121
92
104
113
69
75
84
42
33
34
85
56
50
95
61
49
99
38
29
115
25
17
141
24
14
136
24
12
142
22
13
138
24
12
137
25
12
143
29
18
136
31
24
132
48
39
142
85
77
182
151
147
201
178
175
203
190
186
210
205
200
206
205
200
207
202
210
192
197
202
162
178
177
189
208
213
146
152
158
42
22
28
27
24
19
40
37
34
103
70
70
114
40
37
143
24
16
140
24
14
138
25
13
137
26
14
135
25
12
133
32
24
144
66
62
164
112
108
171
144
142
160
155
162
137
140
147
115
117
125
106
100
110
93
88
94
75
71
84
59
61
74
111
117
126
220
232
241
201
213
215
95
78
84
13
15
12
7
10
9
62
50
52
116
70
73
146
23
17
146
23
16
130
25
12
135
26
14
130
26
20
145
72
68
140
103
103
110
91
93
94
80
86
92
86
95
49
52
61
19
18
25
29
17
22
50
34
35
25
15
17
18
16
23
120
124
137
209
221
235
210
224
235
157
155
167
38
36
42
6
7
7
19
22
23
68
59
66
144
24
16
142
25
18
121
19
11
128
21
18
133
55
54
127
85
83
84
58
59
68
41
46
86
61
68
82
78
83
46
50
55
22
24
27
19
11
12
50
43
39
30
30
28
65
73
76
175
191
200
201
216
232
205
209
231
203
205
224
102
103
115
16
14
22
18
16
19
22
23
26
138
25
14
132
37
30
139
60
57
131
52
55
117
76
79
66
52
53
72
56
57
86
59
60
106
80
82
78
77
78
40
46
50
34
38
41
36
35
35
70
73
71
115
124
124
182
196
200
203
223
231
197
216
230
205
217
236
195
210
221
108
118
126
61
57
68
37
21
26
18
14
14
133
33
24
114
53
47
132
96
93
121
92
92
81
73
79
89
93
98
60
62
60
69
66
61
85
81
76
68
71
71
83
90
94
155
162
166
192
196
198
219
223
226
237
245
250
235
245
252
215
227
237
215
228
240
211
222
231
114
121
124
48
37
42
93
59
74
53
17
28
20
9
12
116
40
36
69
44
42
58
53
56
67
69
72
81
88
96
75
82
88
29
37
36
28
41
36
36
49
45
25
32
34
140
148
154
242
251
255
236
246
250
235
242
249
227
233
244
220
226
237
219
225
237
223
226
238
149
139
150
58
31
39
57
11
21
84
25
46
78
40
59
78
67
77
141
93
92
71
70
73
45
46
60
52
54
66
67
75
84
33
38
44
23
24
28
22
27
33
47
56
62
41
49
55
155
163
174
217
227
240
199
214
225
190
205
217
191
203
217
208
218
231
220
229
239
223
228
238
173
163
177
103
74
86
93
57
69
115
90
106
135
128
146
149
149
164
189
175
180
76
90
98
33
36
53
43
42
56
57
63
72
21
23
28
16
11
14
23
21
27
57
64
73
66
79
89
158
170
185
194
208
224
182
199
213
179
197
213
196
211
228
201
214
227
194
206
215
206
217
225
222
227
242
179
177
192
151
152
165
156
168
180
149
167
181
151
162
176
181
190
201
90
111
123
38
47
62
42
46
57
52
57
65
11
10
15
11
9
9
11
14
15
20
31
38
49
66
79
160
177
191
186
204
218
176
194
208
185
202
219
185
198
216
115
124
138
69
79
88
90
102
109
161
172
184
196
211
228
183
200
218
170
184
201
160
177
191
153
169
181
139
150
162
106
128
141
45
55
69
46
52
61
28
30
35
3
3
4
9
10
11
15
22
27
30
45
54
54
72
86
162
180
194
180
198
212
172
190
204
190
205
219
113
123
136
21
25
36
20
26
32
21
30
34
48
56
64
149
163
177
187
202
221
171
184
204
142
158
173
133
147
159
72
83
96
108
130
143
52
62
76
48
53
62
18
19
21
7
7
7
11
16
21
59
72
81
90
108
121
99
117
131
165
183
197
176
194
208
177
195
209
169
183
193
42
47
56
29
30
38
47
49
55
38
43
46
14
20
25
70
79
89
149
161
178
136
148
169
117
132
149
117
129
141
59
70
83
114
136
149
68
78
92
31
36
45
13
15
15
14
17
19
24
34
42
72
88
100
79
97
111
108
126
140
187
205
219
187
205
219
191
208
222
139
152
160
27
32
38
43
43
51
30
32
37
27
31
35
28
32
36
27
31
39
108
117
130
132
145
164
123
138
155
89
99
110
60
71
84
113
136
148
77
87
101
28
33
42
16
21
22
31
39
43
48
63
74
71
87
101
70
86
100
136
154
168
189
207
221
179
197
211
180
198
212
116
129
137
31
37
43
54
56
64
53
55
63
41
44
52
27
28
35
14
15
21
72
77
86
133
147
162
124
139
154
60
67
78
58
69
82
105
128
140
75
86
101
21
28
37
20
30
33
46
60
67
76
94
108
96
111
127
97
111
126
145
162
176
164
182
195
163
180
194
170
188
201
113
127
135
32
41
48
57
60
70
71
75
86
49
53
65
37
35
46
17
15
21
41
44
50
108
122
131
96
111
123
33
38
49
57
70
87
95
117
132
87
104
120
47
61
75
61
81
93
98
121
134
137
159
177
165
183
200
169
185
200
176
195
207
183
201
212
182
199
213
182
198
214
124
136
148
34
42
53
54
60
72
96
102
113
92
98
110
51
52
64
27
28
34
17
21
24
70
79
85
59
69
76
12
16
22
65
73
87
89
103
115
69
85
96
47
60
72
52
69
82
60
80
93
74
91
105
86
100
114
91
104
119
96
113
125
98
113
126
96
109
123
98
109
124
83
89
102
32
37
48
60
65
76
59
64
75
62
66
78
29
31
41
20
23
27
4
8
9
17
20
24
10
14
16
3
5
6
