P3
24 24
255
72
56
51
170
137
109
165
130
96
151
119
104
175
156
161
183
178
184
185
179
178
155
146
141
146
132
124
157
139
128
169
148
134
188
167
147
197
175
151
196
169
150
178
152
137
141
120
108
121
109
96
172
167
152
211
206
183
219
210
181
221
209
179
217
201
174
217
195
168
217
191
164
49
38
35
143
115
89
164
130
95
154
120
102
169
146
150
194
185
193
200
195
199
166
158
159
130
118
116
125
108
102
128
107
98
151
132
118
165
146
130
165
143
131
148
129
119
143
132
122
147
143
132
182
183
167
188
190
166
201
199
170
212
207
178
217
209
183
213
204
179
219
209
183
37
30
29
125
113
92
180
161
128
171
148
123
169
151
147
197
186
195
202
194
199
179
170
171
139
128
126
113
98
94
122
105
99
130
113
106
119
104
96
133
116
109
122
107
101
140
128
122
185
178
172
203
202
192
191
192
170
201
197
176
215
206
195
218
207
196
215
209
197
219
215
202
100
96
88
175
174
154
193
186
155
168
156
126
163
149
140
192
181
190
198
189
193
195
186
185
174
164
163
145
132
129
142
129
123
132
118
113
106
92
88
121
107
103
122
108
104
139
124
121
192
180
177
209
204
198
189
187
165
213
206
189
242
230
228
237
224
219
239
231
224
232
228
218
177
175
155
190
189
167
190
183
153
160
147
119
133
120
111
173
161
168
197
188
191
200
192
191
194
184
183
185
173
170
167
154
148
146
131
127
129
115
112
129
115
112
133
119
116
141
127
124
177
166
163
201
197
187
189
188
162
220
216
193
241
233
223
235
226
213
232
227
207
213
211
187
193
191
167
195
194
169
197
190
159
157
144
117
128
115
104
163
152
155
185
177
179
191
182
181
193
183
182
195
182
180
178
164
159
151
138
135
114
102
100
129
118
116
131
119
117
134
123
121
170
160
158
194
189
178
208
208
178
234
233
204
236
232
216
240
235
214
235
234
203
201
203
167
200
198
175
205
205
176
197
191
160
151
138
112
149
136
123
175
165
164
184
176
177
189
181
180
193
184
182
187
175
172
168
154
149
136
124
121
117
107
106
128
118
116
128
119
117
129
120
118
167
158
156
181
176
166
205
205
175
240
240
209
243
243
222
243
244
216
238
242
205
206
212
169
203
201
176
208
209
176
194
188
157
160
146
122
168
155
141
191
182
177
193
185
185
191
183
182
193
183
182
172
159
157
146
132
127
119
107
104
124
115
115
142
133
132
133
124
123
135
126
125
167
158
159
176
170
164
191
189
163
234
235
206
243
246
224
241
246
217
236
242
205
215
222
181
197
196
165
199
198
164
191
183
153
180
165
143
172
159
145
179
170
163
183
176
174
173
165
164
174
164
163
174
162
159
152
138
133
131
120
118
141
133
134
166
159
159
142
135
135
154
146
146
169
161
163
172
165
163
191
189
168
230
231
205
240
244
223
241
248
220
239
247
214
228
234
199
201
193
163
180
167
136
177
156
131
202
185
164
171
161
146
154
145
136
142
135
132
142
135
133
168
161
159
168
158
158
147
137
135
156
143
146
175
164
167
169
164
162
150
149
144
164
162
158
158
153
152
160
157
152
197
195
176
230
228
203
241
242
215
241
247
216
244
249
221
242
245
218
207
191
168
170
142
120
161
125
109
215
193
178
189
181
166
186
177
167
173
166
161
172
167
163
190
184
182
177
170
171
137
130
132
127
114
120
180
165
169
174
170
163
150
152
140
160
158
149
175
171
166
176
174
164
193
189
170
236
231
204
245
242
211
242
244
213
243
245
218
251
251
228
209
189
170
181
145
132
154
112
104
217
192
183
206
199
188
197
190
182
195
189
184
185
180
176
170
164
162
173
167
168
166
160
163
152
137
141
163
146
145
184
176
165
166
162
146
152
145
133
192
184
175
181
177
165
175
168
150
204
195
169
238
232
202
243
241
212
244
245
217
247
249
221
197
176
161
196
155
151
155
110
109
198
173
168
214
208
199
192
186
181
174
168
164
183
178
174
173
168
165
161
155
156
174
167
170
178
164
166
128
110
105
164
150
136
189
177
159
147
134
119
167
154
143
180
171
158
156
144
126
118
104
80
157
145
118
215
209
183
239
238
209
235
237
205
180
163
149
202
167
165
190
149
151
185
162
159
207
202
194
210
205
199
205
200
196
214
209
205
193
188
185
174
168
168
176
170
172
173
161
162
129
112
104
137
120
105
191
173
155
153
135
119
163
147
134
200
186
173
171
155
136
135
115
92
116
98
75
144
132
111
184
178
152
193
188
158
185
175
159
203
181
176
210
179
177
194
177
170
191
189
177
211
207
197
218
212
207
226
221
217
225
220
217
203
197
198
190
184
187
179
171
170
151
139
131
121
103
90
168
149
133
158
140
126
167
151
139
194
177
162
170
148
130
172
147
126
154
131
111
131
112
96
153
138
118
169
156
132
197
194
175
202
194
183
209
190
182
210
200
188
186
186
170
189
184
170
197
191
185
204
199
194
209
203
201
213
208
208
207
200
202
181
177
175
178
171
164
149
135
123
146
127
113
175
158
145
183
168
157
174
155
140
156
131
113
171
143
123
163
137
119
148
126
112
169
148
134
180
159
142
191
191
171
203
199
186
201
190
177
202
194
178
202
198
180
195
188
172
193
190
178
192
186
177
178
171
164
198
193
188
207
198
195
199
191
189
211
207
201
203
191
182
166
148
136
187
169
157
177
160
147
155
135
120
147
123
106
166
141
124
167
142
128
171
149
138
182
159
148
175
152
138
179
179
158
200
195
183
208
200
187
200
190
176
209
198
184
215
205
191
210
209
192
186
178
164
161
151
139
182
179
166
196
182
173
194
181
177
203
197
192
207
196
188
190
174
162
185
165
150
155
134
118
142
124
107
155
137
121
166
147
133
172
153
142
179
161
150
173
153
141
159
139
125
169
170
148
197
191
180
218
210
199
217
207
197
215
203
193
217
206
195
212
207
192
195
180
168
170
156
145
179
174
159
195
180
169
191
176
170
190
182
175
192
181
172
192
176
163
170
150
134
132
111
93
142
125
108
167
150
134
170
152
139
170
152
141
179
161
151
173
154
142
157
138
124
168
170
143
193
188
176
216
210
201
222
213
207
223
212
206
222
211
203
211
199
189
205
182
175
194
174
165
194
186
171
201
186
174
198
181
172
198
186
178
196
182
171
188
171
158
153
133
117
134
114
97
155
137
120
171
154
138
167
149
136
166
148
138
189
171
161
178
159
146
165
146
132
175
179
146
191
189
170
211
207
198
213
205
202
214
205
200
216
205
197
198
177
171
171
138
136
194
167
161
206
195
180
201
187
171
201
182
170
200
185
173
197
181
168
177
158
144
150
130
115
144
125
108
158
141
124
167
150
134
157
140
126
159
141
130
181
163
153
176
157
145
168
149
135
181
187
147
188
190
162
208
206
192
210
204
200
205
198
191
206
196
185
160
131
129
122
80
82
177
145
141
208
194
179
198
184
166
194
174
159
193
174
159
184
165
150
166
147
132
150
131
116
139
120
105
156
139
122
160
143
127
153
136
122
155
137
127
160
142
132
159
140
128
155
136
122
174
181
134
178
183
146
205
205
186
214
209
202
209
204
192
203
194
178
164
129
130
131
81
88
180
142
140
202
186
172
187
171
152
182
161
144
182
161
145
169
149
132
157
137
122
139
120
105
134
115
100
153
135
119
154
137
121
144
126
112
151
133
122
141
123
113
131
112
100
141
122
108
168
176
126
168
175
132
196
198
178
215
212
204
212
208
195
199
192
175
189
160
157
184
142
144
203
170
164
185
168
152
173
155
135
172
149
131
163
141
124
155
133
116
147
127
111
118
100
84
131
113
97
148
131
115
145
128
113
141
123
109
144
126
114
132
114
102
127
108
95
133
114
100
