P3
24 24
255
162
109
73
161
99
63
176
114
76
175
114
75
178
111
74
178
111
74
179
112
75
180
113
75
176
108
67
168
99
59
160
89
53
164
92
59
173
94
59
156
89
52
120
78
51
69
44
30
66
39
31
90
52
41
99
56
46
94
46
39
105
53
46
124
67
59
127
71
61
123
73
61
169
118
81
166
106
70
176
113
76
179
116
76
180
115
76
180
117
81
180
116
78
181
113
71
176
109
68
174
105
67
159
90
53
150
84
49
181
106
67
175
104
65
155
103
72
116
79
57
96
58
43
125
77
62
131
82
66
112
61
50
117
62
56
120
63
54
122
67
56
121
70
58
175
122
83
174
117
80
176
115
81
175
111
75
184
121
81
180
123
87
186
124
85
184
112
66
187
115
76
187
113
79
173
102
67
153
92
53
166
100
60
173
101
64
173
109
74
167
110
77
150
92
65
149
87
64
148
91
65
121
67
47
115
62
53
117
64
54
109
56
45
111
59
48
173
120
81
175
118
81
175
114
79
184
121
84
188
128
87
183
122
86
193
124
86
194
115
72
189
115
77
185
109
76
184
108
74
166
100
63
164
101
66
172
104
73
177
109
76
176
106
73
170
102
71
137
75
47
143
87
56
122
72
47
107
59
44
110
60
49
96
46
35
103
53
42
172
119
83
173
116
79
178
117
80
180
119
80
187
128
88
186
122
83
186
111
73
191
109
70
187
115
81
175
103
72
172
97
67
160
94
61
154
94
67
151
89
65
166
97
70
176
100
70
183
109
79
155
95
64
166
114
79
133
89
60
104
62
44
104
58
45
112
64
52
119
71
59
178
124
91
178
122
86
183
123
83
170
111
71
176
118
79
188
123
82
198
125
84
193
121
83
174
118
88
167
109
83
165
101
77
169
111
85
157
105
81
140
85
62
146
82
57
169
96
70
179
106
80
160
100
72
171
122
89
141
103
75
95
61
43
104
62
49
117
71
58
119
73
60
174
120
89
184
127
91
184
124
82
186
126
84
186
127
91
194
129
84
191
128
80
176
123
80
155
121
94
158
119
101
167
120
103
187
144
126
174
131
107
147
99
73
134
79
55
151
88
67
160
95
75
156
97
76
155
108
81
124
91
68
74
46
32
102
62
49
105
61
47
102
59
45
147
93
64
177
122
86
191
132
90
190
131
90
188
129
95
176
115
69
172
120
69
176
140
95
184
166
143
174
151
136
148
116
103
163
133
121
176
141
118
154
110
82
133
86
63
149
97
80
152
96
82
149
92
77
131
86
66
80
49
33
66
42
33
97
60
48
103
62
48
102
60
46
188
140
110
202
154
122
189
140
105
182
132
98
179
127
96
156
107
72
165
123
84
188
156
119
200
178
157
174
147
125
152
119
95
114
83
73
95
64
52
127
91
71
120
83
65
137
100
84
151
111
96
136
92
79
114
77
65
78
49
42
64
41
37
73
47
37
89
55
41
98
57
41
200
156
125
195
150
120
188
143
112
187
141
111
165
119
89
149
106
76
180
143
110
194
160
128
185
151
127
168
129
100
168
128
98
154
119
108
107
77
68
146
116
99
145
115
98
138
109
91
156
123
106
127
90
76
100
68
58
72
45
41
57
35
33
64
43
35
83
51
37
96
55
38
196
150
123
190
145
117
180
134
106
187
143
115
173
131
102
173
132
103
198
161
130
193
156
125
171
125
95
165
114
80
180
133
102
188
151
137
174
145
131
187
160
140
173
146
126
179
152
132
160
129
111
128
93
78
105
75
64
72
47
42
67
47
43
69
48
40
87
56
42
108
68
50
198
152
126
196
150
124
180
134
108
168
125
98
180
143
114
191
155
125
203
167
138
205
165
136
210
155
123
191
132
98
196
143
113
200
160
140
192
162
143
187
158
137
188
159
138
190
161
140
168
137
117
153
120
105
113
84
73
80
57
51
70
51
47
64
43
35
96
64
50
135
95
77
190
144
119
187
141
117
176
129
105
150
108
83
171
139
110
199
165
137
211
175
147
198
157
130
211
158
130
194
134
107
190
134
109
203
159
135
191
154
132
186
148
127
184
147
126
189
152
131
190
154
135
166
135
119
100
73
61
70
49
42
47
30
26
56
35
27
106
75
60
143
103
85
189
143
120
192
147
124
191
145
122
145
105
80
156
128
99
210
179
151
169
133
106
149
108
84
192
145
124
194
139
121
178
122
101
168
121
92
169
125
99
181
135
115
170
124
104
167
121
101
154
114
94
117
88
72
67
42
31
43
24
17
34
19
14
49
29
21
104
73
58
143
102
85
196
156
134
190
153
136
186
145
125
137
98
75
116
92
71
201
170
147
157
116
91
169
122
97
210
165
142
182
131
113
128
75
55
143
98
72
124
76
53
147
97
79
127
85
69
97
64
50
82
54
42
56
27
20
47
17
13
51
27
22
43
26
20
64
40
35
105
69
55
157
117
96
190
156
135
190
163
153
190
155
138
152
115
93
60
39
31
153
124
111
188
148
127
185
137
113
195
149
124
165
113
92
144
87
71
206
156
141
177
120
103
137
80
65
101
61
51
61
39
33
55
39
36
51
24
25
71
34
36
80
46
44
55
31
26
74
45
43
110
69
54
160
120
96
186
150
130
188
162
150
186
152
134
154
117
98
32
13
10
49
29
23
126
100
86
146
116
99
155
115
101
140
86
76
140
73
66
192
124
116
204
134
122
156
91
78
97
47
39
62
27
23
73
49
46
73
50
47
82
49
47
87
50
46
58
25
20
62
30
27
107
66
52
166
125
103
181
141
123
178
150
135
163
129
110
124
87
70
36
15
12
29
11
8
40
22
16
55
37
29
78
54
47
99
57
52
101
41
37
130
62
56
144
83
70
123
72
57
95
54
43
55
26
18
52
32
25
51
35
28
60
34
29
85
51
44
78
40
33
77
43
38
102
62
49
153
112
94
169
123
107
167
137
118
149
115
96
105
66
48
79
47
37
94
66
58
66
40
34
46
23
19
47
27
19
71
38
31
92
44
38
120
69
59
90
54
39
55
31
19
56
38
27
41
29
18
35
25
17
34
22
17
30
15
10
55
31
24
82
49
42
86
51
44
97
58
48
119
78
64
156
105
91
160
129
107
148
115
95
137
94
75
143
97
74
118
71
55
102
54
48
107
60
57
110
66
58
109
62
53
125
75
67
103
60
51
47
26
16
17
10
4
16
9
3
19
14
8
24
17
14
28
19
19
14
11
7
19
12
6
43
23
17
65
31
23
96
58
48
99
59
47
151
96
83
140
104
82
171
137
117
192
147
126
172
117
85
116
58
34
133
69
57
136
67
62
146
74
66
141
69
61
127
63
57
101
53
46
65
41
36
37
25
23
32
19
18
25
13
13
24
12
15
17
9
14
10
13
12
15
18
14
20
12
7
66
36
28
97
62
54
78
39
30
158
97
85
136
86
69
148
105
87
177
134
112
184
142
111
147
107
79
169
124
100
151
97
79
127
68
59
139
73
67
142
78
69
125
73
58
103
62
51
77
43
38
63
38
32
43
28
21
33
22
17
24
14
12
17
11
6
26
20
14
31
20
15
62
42
34
72
48
41
50
20
15
177
113
101
168
111
96
140
91
74
120
76
57
171
132
109
143
110
87
118
80
58
130
81
62
123
71
61
156
95
88
166
99
90
145
84
68
124
72
59
105
61
53
91
56
47
78
51
42
76
53
44
66
43
35
56
32
24
67
43
35
70
46
38
65
40
29
65
37
27
73
40
31
180
113
102
170
109
95
153
98
83
123
72
57
139
92
77
156
115
99
115
69
55
126
70
58
131
74
63
158
94
84
168
96
87
162
88
77
127
69
57
119
71
60
123
76
67
120
74
68
112
66
59
104
60
49
105
61
49
119
75
63
116
73
60
105
64
49
104
63
48
109
65
51
