P3
24 24
255
74
83
72
83
89
76
76
82
70
55
62
44
83
92
61
84
95
51
75
88
34
75
88
29
78
92
31
89
104
39
90
105
38
87
100
35
83
91
41
66
70
43
67
69
57
70
72
59
78
80
61
80
77
61
84
80
65
87
83
68
87
83
68
86
81
66
89
81
71
89
80
72
73
82
71
73
79
66
70
76
62
70
77
56
70
80
44
69
82
33
71
85
26
73
87
23
75
90
22
78
94
20
78
94
15
81
95
14
90
99
31
89
94
53
96
98
79
98
99
84
100
100
83
104
100
82
102
96
78
104
98
80
99
93
76
95
88
72
97
88
77
94
83
75
74
81
71
62
61
55
43
42
32
51
55
32
68
83
38
64
87
24
68
88
20
71
89
19
75
91
18
74
87
11
81
93
14
94
101
21
96
98
24
98
100
41
110
112
70
114
115
89
102
105
86
100
103
80
104
103
79
109
103
82
99
91
75
91
80
72
85
78
72
80
74
67
71
76
67
58
55
51
42
38
28
41
44
17
57
76
23
54
85
12
58
82
10
63
81
11
65
80
9
71
83
11
82
91
17
96
99
24
105
103
28
94
96
22
93
97
33
103
108
63
103
109
77
106
114
79
108
113
77
97
94
64
93
82
65
91
77
73
84
77
72
80
75
66
88
94
82
103
104
93
87
85
70
46
49
19
56
73
18
56
84
12
69
91
25
82
99
37
81
97
32
87
100
33
90
101
33
87
94
20
98
101
22
99
104
24
94
101
25
91
98
33
97
106
49
102
111
56
106
114
60
102
103
59
94
87
59
99
85
75
97
82
73
92
78
63
136
142
128
153
157
141
104
104
85
51
54
22
60
75
21
59
84
15
73
93
33
97
113
56
101
117
57
108
124
61
102
117
53
90
101
28
95
103
21
97
106
22
97
107
22
93
103
20
93
104
24
99
110
35
105
116
45
110
118
58
103
100
61
105
90
72
108
85
70
108
84
65
160
166
152
162
170
152
87
89
71
50
53
24
67
80
30
56
77
17
53
70
21
88
104
49
101
119
60
112
130
68
107
127
63
90
107
33
94
106
25
96
108
27
94
105
21
96
106
17
96
106
15
95
105
20
96
110
28
101
114
43
104
105
55
113
98
70
125
98
77
126
96
74
160
167
153
159
169
153
90
93
79
44
46
23
72
81
40
69
86
34
58
74
25
86
103
46
103
123
61
90
112
48
97
122
55
92
114
39
90
106
29
96
109
36
95
106
31
94
103
21
99
107
19
98
105
21
87
103
18
92
110
31
97
102
42
112
97
59
131
101
76
131
99
77
152
158
146
148
159
146
114
117
107
48
48
32
68
73
43
88
101
55
94
108
52
103
120
59
115
135
71
96
120
52
88
116
44
93
117
41
89
107
34
101
115
50
98
108
44
94
102
30
99
105
26
101
106
28
84
100
18
85
105
25
105
112
46
110
96
50
125
96
69
132
101
81
144
147
138
142
147
137
136
135
126
80
76
64
47
44
26
72
73
46
94
103
61
104
117
65
114
131
70
113
133
64
92
115
40
94
113
36
93
108
36
103
119
54
97
113
51
93
107
40
96
106
33
97
106
29
85
101
18
82
100
19
107
117
47
107
105
51
111
93
60
121
98
78
142
143
134
147
148
136
151
149
137
137
131
119
93
84
71
73
65
49
50
53
27
62
70
33
89
99
46
94
107
42
90
104
32
98
109
34
102
114
40
105
124
57
103
125
61
97
117
50
94
110
39
94
108
28
86
101
17
83
98
17
95
108
36
101
111
51
92
88
48
102
90
65
152
153
140
159
160
145
154
153
136
152
147
129
158
151
132
118
111
90
53
52
30
57
58
30
103
106
64
100
104
51
95
101
39
102
110
39
110
123
49
116
137
69
111
135
69
106
128
61
97
115
44
91
108
28
87
104
20
85
101
19
84
99
25
98
111
48
85
89
41
83
78
45
164
164
149
161
160
145
137
136
117
115
114
90
157
155
128
145
143
114
128
122
98
110
104
80
123
118
87
122
119
77
104
102
49
103
108
40
105
120
46
109
132
63
108
133
68
104
128
60
97
117
45
90
109
31
88
107
25
87
106
23
79
97
21
92
108
42
87
98
43
85
86
45
170
167
154
179
177
164
176
176
158
127
129
104
176
179
149
197
199
166
157
151
122
152
142
119
113
104
80
145
137
103
128
123
75
103
108
41
103
121
45
101
126
56
104
131
65
102
128
60
97
119
48
95
115
40
91
112
31
89
110
27
79
99
21
86
105
35
91
106
47
91
94
50
221
218
210
238
236
230
248
247
235
196
199
178
156
163
133
200
206
171
176
173
138
184
177
149
108
101
77
142
136
103
137
134
85
106
113
45
100
119
43
99
126
56
100
130
63
101
129
60
101
125
53
99
122
48
95
118
39
89
113
29
80
104
23
81
103
29
92
106
47
83
80
39
253
250
248
246
242
242
251
250
242
244
247
230
160
169
141
158
170
132
172
174
132
195
193
159
113
110
83
114
112
77
139
139
86
110
120
49
98
118
42
98
126
55
97
128
60
99
128
58
103
128
57
104
127
55
102
126
47
92
116
33
83
108
25
78
102
26
85
96
39
73
62
28
243
241
236
187
186
176
186
190
171
201
210
181
145
161
120
128
146
98
151
156
114
156
160
118
116
125
77
106
115
60
128
135
71
114
122
52
104
120
46
103
127
54
101
129
57
103
128
58
108
127
59
110
127
57
105
125
48
92
116
32
82
106
24
76
98
23
84
87
37
85
66
37
233
234
224
126
131
106
107
116
83
114
130
85
105
127
71
115
138
78
120
130
81
110
124
65
99
122
48
99
119
46
104
114
52
103
107
49
109
118
51
110
128
55
107
130
54
107
127
57
112
125
61
110
119
51
96
111
36
86
108
27
78
99
21
76
90
22
90
82
39
104
80
54
200
203
194
124
128
109
114
123
96
118
131
94
93
111
65
87
108
53
83
102
35
79
103
25
80
106
28
86
105
43
75
81
45
68
68
32
95
102
46
100
117
51
98
120
47
97
116
47
98
110
48
97
107
45
97
112
43
97
115
41
91
104
34
87
89
30
91
75
36
111
84
58
138
144
136
136
137
129
133
137
122
132
138
116
100
109
81
61
75
35
57
81
13
60
87
9
67
90
20
89
102
52
96
99
73
58
58
34
51
58
17
69
86
28
71
95
26
80
101
32
94
109
47
101
116
59
104
122
59
101
116
49
93
97
35
87
77
26
94
70
34
109
80
52
124
130
123
122
123
118
111
112
104
103
105
92
106
107
90
90
94
70
57
74
31
52
71
18
69
83
29
102
110
61
106
111
69
83
86
52
64
72
34
71
90
36
77
102
36
85
108
40
100
118
58
103
123
71
102
123
65
109
124
61
106
108
48
87
73
23
93
66
31
99
68
40
101
106
95
97
97
88
102
101
91
109
106
93
117
112
96
120
115
98
103
106
86
85
87
62
93
92
56
101
104
56
95
104
47
89
97
49
74
84
40
75
95
37
82
108
42
90
114
48
114
134
76
119
142
91
105
130
72
102
122
57
111
119
54
107
100
44
94
69
29
98
64
35
99
101
86
106
107
88
111
110
91
113
107
88
112
103
83
104
93
73
97
86
68
95
81
62
80
66
40
76
72
35
84
93
44
92
104
52
81
94
40
72
95
30
79
107
39
89
113
49
117
137
81
123
148
95
105
133
71
94
122
50
96
114
41
103
107
42
103
81
37
101
66
35
108
107
87
110
108
83
107
101
76
100
87
64
91
73
51
81
60
39
86
65
42
104
83
59
93
74
50
73
63
34
76
78
41
92
94
49
88
89
38
77
87
30
79
95
36
79
93
39
91
105
55
100
123
69
93
122
60
86
114
45
87
109
38
92
104
38
97
78
34
96
59
29
