P3
24 24
255
81
114
75
61
94
68
61
90
72
68
94
76
62
93
73
22
39
24
15
26
12
22
36
17
31
47
28
35
55
37
51
73
51
63
86
59
72
105
72
75
113
79
72
107
75
71
101
71
77
103
71
83
109
73
51
74
45
78
103
77
149
162
128
156
172
129
87
112
82
87
116
85
71
95
61
58
89
69
64
91
77
57
78
61
59
88
67
20
35
19
17
27
13
28
43
22
50
77
44
61
93
59
71
106
71
71
108
73
69
103
72
67
101
72
68
100
73
56
78
53
41
57
34
83
110
73
70
98
62
78
102
77
156
167
136
172
186
147
98
130
96
89
127
91
72
90
62
74
100
79
73
93
79
49
63
50
49
74
56
18
29
15
29
38
24
62
90
54
82
126
73
85
129
75
86
130
77
63
99
62
34
58
34
52
71
51
95
115
96
43
57
42
25
37
22
94
123
88
85
113
72
78
106
74
166
183
149
180
193
161
109
141
104
107
140
108
81
103
77
78
97
72
80
94
75
61
71
58
40
56
41
10
20
8
53
73
47
94
139
81
87
138
75
88
140
75
75
114
62
25
41
18
13
26
6
45
65
39
92
115
89
57
79
64
50
59
42
101
125
94
89
120
72
98
140
83
144
176
131
179
195
162
120
150
114
124
148
120
119
149
121
89
114
88
63
80
57
79
92
70
66
71
51
34
44
23
81
113
71
96
144
83
89
136
78
90
134
79
41
63
34
14
23
7
52
69
40
92
124
81
67
94
60
71
86
62
111
112
80
113
139
99
110
155
91
115
165
93
136
170
115
156
177
141
121
150
120
127
150
121
128
163
131
123
155
127
65
84
64
55
69
51
79
81
59
82
90
64
111
137
97
110
142
99
106
138
94
69
93
58
20
33
13
37
56
28
92
124
83
105
143
93
83
115
73
97
128
80
118
151
98
120
156
105
115
156
95
92
129
74
144
167
116
147
173
132
125
152
119
127
154
126
129
165
132
132
166
135
100
127
103
49
65
48
39
54
32
84
114
75
104
142
96
109
127
97
125
126
102
93
93
74
63
71
50
83
108
73
97
135
90
94
133
82
104
146
89
110
161
97
109
156
98
127
165
108
85
117
71
57
87
49
152
169
119
150
175
124
123
151
119
124
156
138
126
161
129
131
168
135
128
165
135
75
95
72
51
75
46
91
140
84
85
138
82
107
112
79
138
109
94
110
102
86
129
136
117
147
162
135
132
153
120
120
154
102
113
151
93
119
135
94
117
124
92
115
133
88
90
118
74
93
136
88
160
189
132
141
170
115
113
146
118
125
157
141
106
135
107
128
164
131
130
173
139
119
152
119
120
144
107
123
147
102
114
127
87
137
118
89
148
115
95
110
92
74
105
102
81
132
139
108
146
141
118
135
138
110
128
133
100
134
116
93
140
120
102
120
107
85
126
119
87
119
136
95
152
176
124
145
174
120
99
135
101
106
145
113
100
127
100
111
140
110
133
172
139
136
171
137
147
153
123
140
124
97
150
130
101
145
120
92
142
119
90
136
118
88
131
113
86
127
110
86
125
105
85
123
108
88
136
119
100
147
125
108
151
131
114
142
122
108
156
129
110
136
117
95
146
144
109
144
162
117
109
141
107
112
154
115
104
130
104
94
114
86
133
165
134
133
168
135
143
139
116
135
107
87
128
104
81
133
112
88
147
124
96
150
129
96
160
142
110
152
132
106
145
122
98
144
119
95
132
107
87
135
111
92
138
115
97
138
118
107
162
141
127
165
144
128
163
142
122
127
123
94
126
146
116
119
159
119
101
127
103
98
124
95
123
151
121
131
166
133
147
153
129
193
171
150
138
121
100
79
69
51
124
107
88
147
124
101
147
123
98
162
139
113
180
155
131
171
144
119
152
128
101
144
119
95
144
122
96
121
103
83
148
131
113
179
167
152
180
159
148
160
140
120
128
128
98
123
160
124
110
141
115
120
152
124
120
149
120
129
163
130
120
138
110
184
163
142
192
166
150
87
71
58
114
100
84
156
133
116
164
139
119
166
141
120
154
129
108
161
136
113
183
160
133
182
158
134
187
163
137
173
151
126
148
125
103
143
126
110
181
169
159
195
177
163
142
122
99
124
143
114
116
147
117
100
124
99
111
144
117
106
137
105
114
143
110
128
121
102
187
168
155
168
153
139
140
122
107
153
127
111
172
146
129
172
147
129
167
141
124
164
139
119
157
132
109
163
138
118
161
134
113
165
143
118
171
153
124
156
134
113
161
145
131
145
130
117
167
146
131
114
122
99
114
141
109
78
97
71
95
123
99
91
118
86
115
143
108
110
126
99
129
121
106
204
187
176
167
145
130
137
110
94
160
136
123
153
130
117
179
154
137
186
161
141
170
148
129
178
154
136
179
151
131
156
134
111
162
150
120
165
145
121
156
134
117
140
123
107
104
97
80
72
87
67
90
122
88
76
101
72
72
93
71
100
125
94
109
134
100
127
153
121
87
96
73
140
125
115
189
169
152
159
136
118
166
146
135
180
160
148
174
150
133
173
148
130
190
166
148
188
167
149
162
141
125
153
128
113
162
144
121
161
145
122
153
132
114
149
130
113
75
75
58
74
94
78
89
121
88
71
104
72
60
84
60
103
130
102
75
102
72
95
116
87
114
141
109
66
74
55
127
118
101
181
163
146
174
155
141
190
170
156
186
165
152
171
149
136
184
157
140
193
167
152
164
146
134
160
137
123
171
147
127
165
145
124
146
127
109
139
124
105
104
109
93
92
113
98
106
129
96
76
101
70
72
99
75
95
121
96
94
120
90
65
91
59
120
154
118
99
125
97
91
93
73
161
150
131
196
181
162
188
169
151
182
162
150
193
173
163
167
145
132
167
143
127
170
143
125
160
135
118
154
129
110
161
139
117
145
125
105
138
120
102
110
117
94
81
102
79
113
136
92
94
118
78
69
98
69
84
115
89
116
150
119
109
141
107
85
117
83
125
148
118
127
129
107
155
149
125
186
173
151
200
179
156
187
165
148
187
168
155
177
159
148
157
143
126
148
126
108
162
139
123
164
140
120
166
141
117
162
136
114
149
133
102
121
122
84
97
109
86
151
172
119
123
158
95
85
121
69
76
111
78
103
145
115
124
153
126
90
115
87
84
105
78
146
148
125
175
161
139
173
154
132
200
172
150
188
161
141
173
155
142
173
156
146
159
141
126
159
137
121
172
147
132
163
136
118
173
143
123
164
137
115
139
140
88
131
123
82
131
134
111
194
209
159
157
189
119
127
170
96
108
147
92
106
145
102
94
122
90
106
125
102
111
136
111
124
139
112
175
159
136
176
150
131
197
164
143
184
155
134
170
155
142
176
159
150
165
142
128
156
133
117
197
169
156
175
147
132
163
136
119
147
127
102
131
126
89
122
107
78
101
114
83
197
213
166
196
215
158
160
191
123
136
176
105
129
169
102
99
132
82
92
117
85
138
163
140
146
173
145
159
151
126
180
154
134
169
143
123
142
124
104
141
129
115
175
153
138
178
152
137
166
145
131
188
163
150
179
149
138
151
124
106
143
119
97
154
131
111
112
96
74
58
74
45
165
191
139
185
207
151
191
211
151
163
193
126
134
177
104
128
173
104
106
145
87
102
127
87
118
144
111
132
143
110
146
134
110
116
104
82
77
73
53
99
92
75
161
139
121
182
155
140
183
161
145
159
138
120
173
148
129
167
142
122
156
131
116
135
117
98
94
85
62
43
60
32
95
120
75
148
178
117
166
195
134
187
213
156
174
202
141
144
185
109
126
173
98
114
153
87
104
142
82
114
150
90
119
141
91
107
125
95
81
108
82
82
96
70
157
142
121
182
154
139
169
144
129
178
161
143
169
149
128
150
127
107
152
131
113
108
98
78
44
49
29
63
97
63
