P3
24 24
255
189
201
210
204
214
221
217
225
231
207
213
217
211
215
218
231
237
235
222
226
225
214
215
215
218
217
219
231
229
232
211
212
214
235
236
238
226
227
229
224
225
227
232
236
238
212
225
228
159
170
176
168
174
178
224
224
229
237
236
239
247
247
247
231
231
231
235
235
234
246
246
245
191
201
206
203
212
213
219
226
225
211
215
213
215
218
214
234
238
230
221
223
218
214
215
214
214
215
214
228
229
227
199
199
200
205
205
206
207
209
208
206
208
206
235
239
237
193
204
207
112
124
130
158
167
173
222
227
230
230
233
233
245
246
244
229
229
225
226
225
219
241
239
232
191
194
196
202
203
201
222
221
217
217
213
208
223
219
211
235
233
219
218
216
208
214
212
211
215
216
212
227
230
221
188
188
185
176
176
175
187
190
187
186
192
189
205
212
210
187
192
197
120
129
137
137
151
157
172
183
184
183
190
187
219
224
221
223
224
220
216
214
206
235
229
218
203
192
197
218
203
204
224
206
206
224
204
203
232
212
208
237
223
210
220
208
198
220
210
205
220
213
206
221
216
206
201
199
192
205
206
203
172
178
179
138
149
155
100
113
122
83
93
106
71
85
100
62
80
94
65
80
88
60
69
73
104
108
111
182
183
183
209
206
202
228
222
215
176
165
170
186
172
175
175
160
161
197
179
179
209
190
187
212
194
184
206
189
180
210
195
189
212
199
195
201
191
185
193
193
186
193
198
196
142
152
159
105
121
137
89
107
128
91
108
128
84
104
126
83
104
126
94
110
128
69
79
90
78
82
88
121
122
124
162
159
158
183
175
172
105
109
114
107
110
114
111
112
114
128
127
128
139
135
134
146
136
134
151
140
137
155
147
144
157
151
152
147
143
146
151
158
160
150
161
167
118
134
147
100
119
139
99
120
144
99
120
140
85
108
130
86
108
131
86
102
120
83
92
104
139
143
149
128
128
131
154
151
150
153
145
141
83
99
107
90
105
115
84
97
104
90
100
106
93
101
107
106
109
118
102
106
113
103
111
115
106
114
123
107
118
134
114
132
151
108
127
146
90
109
128
90
109
127
91
110
127
85
107
120
72
96
111
66
87
104
95
108
122
114
119
128
128
132
134
110
111
110
147
144
139
199
191
182
111
128
142
106
122
137
85
98
113
70
81
94
93
104
116
113
129
146
95
113
127
93
115
125
108
132
148
115
139
165
107
134
165
97
123
151
98
120
142
95
115
130
98
116
127
97
119
127
90
113
123
85
104
114
149
158
165
187
189
191
179
183
180
146
148
142
112
109
100
204
197
184
100
117
129
100
115
130
77
93
109
85
102
118
120
137
154
133
152
171
127
149
168
108
131
151
105
130
155
110
136
165
98
125
154
87
113
139
81
108
130
81
108
125
87
114
129
95
123
140
95
118
134
112
127
137
170
175
179
195
194
193
208
206
203
193
189
185
127
118
112
173
162
152
82
98
113
68
84
101
71
89
108
80
100
121
89
110
131
103
123
145
118
138
161
111
134
159
101
126
153
106
131
161
105
130
158
98
124
149
96
123
146
98
127
147
98
126
145
109
135
155
114
134
150
142
153
161
180
181
182
184
180
177
191
184
181
192
183
181
160
151
148
132
122
118
79
95
116
72
88
113
70
88
115
86
107
134
109
130
159
121
142
168
129
151
176
133
158
184
137
163
190
136
164
191
135
161
190
131
157
185
146
171
197
148
173
196
146
170
190
150
169
184
148
162
172
163
169
173
179
177
175
181
174
168
185
176
171
176
168
165
170
164
163
101
98
99
109
126
153
131
148
179
132
152
184
138
160
193
144
167
201
152
175
205
155
179
207
154
180
208
155
183
209
155
184
210
158
185
212
148
174
200
150
173
198
157
178
201
156
175
195
146
160
171
119
128
134
130
133
135
146
142
139
169
161
155
177
169
165
168
162
161
167
166
168
105
108
113
129
148
175
135
154
185
144
166
198
143
167
201
146
170
205
150
174
208
154
179
210
154
182
210
154
185
210
153
185
208
151
181
201
144
171
190
130
152
170
134
152
170
139
154
169
127
139
148
94
102
108
117
120
122
146
144
142
159
155
153
167
165
167
163
162
165
162
163
167
132
136
142
95
116
141
93
114
143
129
152
182
145
170
202
149
175
208
151
175
211
150
176
209
144
173
202
134
167
191
126
160
181
122
154
167
123
151
162
122
144
155
133
150
160
155
168
178
148
160
169
131
140
147
147
152
157
162
165
167
156
158
160
157
163
169
151
155
162
153
156
161
149
151
156
86
110
138
111
135
164
123
148
177
140
164
194
143
169
199
129
159
188
120
150
178
117
146
171
120
148
170
126
153
172
133
159
172
141
165
176
150
170
180
142
160
168
153
168
176
159
172
181
151
161
170
157
164
173
165
168
175
161
164
172
153
160
168
152
158
165
154
158
163
144
146
150
128
155
188
138
165
197
130
156
186
123
147
176
118
142
169
108
141
163
118
151
171
132
160
178
143
167
185
152
173
190
156
174
191
153
171
186
149
167
180
137
155
165
145
162
172
154
168
177
153
163
173
154
161
172
160
163
175
164
166
178
152
158
164
144
151
156
125
130
136
105
111
116
115
143
176
116
143
174
123
150
179
118
142
170
116
138
164
134
161
184
141
169
190
144
171
189
143
169
185
141
165
181
133
151
168
117
134
150
98
116
129
89
107
118
130
148
157
150
164
173
151
163
173
154
163
173
152
159
171
145
152
162
117
128
133
96
108
112
90
102
106
80
91
95
114
144
174
119
147
176
125
151
179
126
150
176
117
139
164
125
146
171
125
148
171
129
154
173
131
159
175
130
156
171
91
110
126
61
78
94
57
75
88
56
74
85
115
132
142
148
163
172
139
153
162
130
143
152
114
126
136
95
109
117
86
103
108
83
100
104
73
90
94
58
76
80
116
146
175
117
145
173
102
129
154
91
115
139
84
106
130
81
102
126
78
99
122
112
135
154
133
157
174
130
154
169
96
114
131
76
93
108
83
101
114
86
104
114
107
125
134
108
124
133
96
113
121
88
106
113
83
102
109
81
101
108
70
88
95
61
79
86
51
69
75
45
63
69
107
137
163
104
133
158
65
92
116
53
77
100
59
82
104
64
89
112
68
92
115
110
131
151
135
153
172
133
150
168
115
132
149
98
115
131
88
106
119
79
97
107
78
96
106
80
97
106
81
99
106
80
101
108
70
95
100
55
79
84
44
60
69
49
64
73
45
60
68
41
57
65
109
137
161
109
138
162
79
106
128
73
97
119
85
108
129
88
116
136
98
124
144
106
126
146
98
113
132
83
95
114
68
84
101
65
83
98
70
89
101
74
92
103
81
98
109
82
100
108
72
92
99
51
74
80
41
67
72
44
69
75
61
74
85
55
66
77
39
51
61
35
46
58
102
124
148
99
120
143
88
110
132
81
102
124
76
97
118
69
90
103
59
80
91
57
76
87
58
75
86
63
80
91
66
84
99
70
91
101
72
95
101
68
89
99
62
81
94
54
73
82
46
65
72
47
65
72
49
67
74
44
61
69
56
69
78
46
58
68
30
42
52
28
40
50
55
74
92
50
69
86
45
64
82
44
63
81
46
65
82
51
70
79
55
74
81
58
77
84
62
81
87
64
82
91
62
81
94
58
80
88
51
73
77
38
59
68
37
55
68
48
68
76
49
67
74
48
63
72
42
54
64
38
50
59
41
54
63
32
45
54
27
40
49
28
40
50
31
49
60
32
52
61
33
53
62
39
58
68
49
68
78
52
71
79
53
72
79
51
70
77
46
65
72
40
59
68
38
58
69
40
59
66
38
56
61
44
63
71
66
85
97
55
73
82
41
57
65
37
51
60
36
47
56
37
47
57
31
44
53
27
40
49
26
39
48
27
40
49
