P3
# Created by GIMP version 2.10.18 PNM plug-in
24 24
255
137
137
137
129
129
129
118
118
118
112
112
112
104
104
104
103
103
103
102
102
102
109
109
109
114
114
114
123
123
123
130
130
130
140
140
140
149
149
149
161
161
161
169
169
169
180
180
180
189
189
189
197
197
197
204
204
204
210
210
210
217
217
217
223
223
223
227
227
227
233
233
233
129
129
129
118
118
118
105
105
105
95
95
95
86
86
86
86
86
86
85
85
85
92
92
92
101
101
101
111
111
111
120
120
120
130
130
130
140
140
140
151
151
151
160
160
160
172
172
172
182
182
182
190
190
190
197
197
197
204
204
204
211
211
211
217
217
217
223
223
223
228
228
228
119
119
119
105
105
105
92
92
92
77
77
77
72
72
72
66
66
66
70
70
70
74
74
74
86
86
86
98
98
98
109
109
109
121
121
121
130
130
130
141
141
141
154
154
154
164
164
164
175
175
175
182
182
182
190
190
190
198
198
198
204
204
204
211
211
211
218
218
218
223
223
223
113
113
113
97
97
97
79
79
79
64
64
64
52
52
52
46
46
46
51
51
51
61
61
61
74
74
74
88
88
88
101
101
101
111
111
111
123
123
123
134
134
134
146
146
146
156
156
156
167
167
167
175
175
175
185
185
185
191
191
191
198
198
198
205
205
205
211
211
211
218
218
218
106
106
106
89
89
89
74
74
74
54
54
54
36
36
36
22
22
22
35
35
35
50
50
50
68
68
68
80
80
80
93
93
93
106
106
106
117
117
117
127
127
127
138
138
138
148
148
148
157
157
157
167
167
167
176
176
176
183
183
183
191
191
191
199
199
199
205
205
205
213
213
213
106
106
106
88
88
88
70
70
70
50
50
50
29
29
29
9
9
9
27
27
27
47
47
47
63
63
63
77
77
77
90
90
90
101
101
101
112
112
112
121
121
121
132
132
132
140
140
140
150
150
150
159
159
159
168
168
168
175
175
175
184
184
184
191
191
191
199
199
199
207
207
207
106
106
106
89
89
89
74
74
74
55
55
55
40
40
40
30
30
30
38
38
38
50
50
50
65
65
65
76
76
76
87
87
87
97
97
97
106
106
106
116
116
116
124
124
124
133
133
133
142
142
142
150
150
150
159
159
159
168
168
168
175
175
175
184
184
184
192
192
192
200
200
200
113
113
113
96
96
96
80
80
80
65
65
65
56
56
56
50
50
50
53
53
53
59
59
59
68
68
68
80
80
80
89
89
89
95
95
95
102
102
102
111
111
111
119
119
119
125
125
125
134
134
134
141
141
141
149
149
149
158
158
158
165
165
165
174
174
174
184
184
184
193
193
193
117
117
117
104
104
104
91
91
91
78
78
78
71
71
71
66
66
66
67
67
67
69
69
69
76
76
76
83
83
83
88
88
88
95
95
95
98
98
98
105
105
105
111
111
111
117
117
117
125
125
125
130
130
130
139
139
139
146
146
146
155
155
155
165
165
165
175
175
175
186
186
186
127
127
127
114
114
114
101
101
101
92
92
92
83
83
83
80
80
80
77
77
77
81
81
81
82
82
82
88
88
88
91
91
91
93
93
93
96
96
96
100
100
100
104
104
104
109
109
109
115
115
115
121
121
121
128
128
128
135
135
135
145
145
145
155
155
155
166
166
166
178
178
178
133
133
133
124
124
124
112
112
112
104
104
104
95
95
95
91
91
91
88
88
88
89
89
89
88
88
88
91
91
91
90
90
90
91
91
91
93
93
93
96
96
96
97
97
97
101
101
101
105
105
105
110
110
110
118
118
118
125
125
125
135
135
135
145
145
145
157
157
157
169
169
169
142
142
142
133
133
133
123
123
123
114
114
114
107
107
107
102
102
102
98
98
98
95
95
95
94
94
94
93
93
93
91
91
91
91
91
91
92
92
92
91
91
91
91
91
91
92
92
92
95
95
95
99
99
99
107
107
107
115
115
115
127
127
127
136
136
136
148
148
148
160
160
160
152
152
152
142
142
142
132
132
132
125
125
125
118
118
118
113
113
113
107
107
107
102
102
102
99
99
99
95
95
95
93
93
93
90
90
90
89
89
89
85
85
85
84
84
84
81
81
81
83
83
83
87
87
87
96
96
96
104
104
104
117
117
117
128
128
128
141
141
141
152
152
152
162
162
162
153
153
153
143
143
143
135
135
135
128
128
128
122
122
122
115
115
115
109
109
109
104
104
104
99
99
99
95
95
95
89
89
89
85
85
85
78
78
78
73
73
73
70
70
70
70
70
70
74
74
74
82
82
82
94
94
94
107
107
107
120
120
120
135
135
135
146
146
146
171
171
171
162
162
162
154
154
154
146
146
146
137
137
137
131
131
131
123
123
123
117
117
117
109
109
109
101
101
101
95
95
95
88
88
88
81
81
81
71
71
71
62
62
62
58
58
58
55
55
55
61
61
61
69
69
69
83
83
83
99
99
99
113
113
113
128
128
128
142
142
142
181
181
181
173
173
173
165
165
165
157
157
157
147
147
147
139
139
139
130
130
130
123
123
123
115
115
115
106
106
106
97
97
97
88
88
88
77
77
77
66
66
66
53
53
53
43
43
43
37
37
37
45
45
45
58
58
58
75
75
75
91
91
91
109
109
109
123
123
123
139
139
139
188
188
188
182
182
182
174
174
174
165
165
165
156
156
156
148
148
148
138
138
138
129
129
129
120
120
120
111
111
111
99
99
99
89
89
89
76
76
76
64
64
64
48
48
48
30
30
30
17
17
17
32
32
32
52
52
52
72
72
72
88
88
88
106
106
106
122
122
122
137
137
137
197
197
197
189
189
189
180
180
180
174
174
174
164
164
164
156
156
156
145
145
145
136
136
136
125
125
125
115
115
115
104
104
104
92
92
92
79
79
79
66
66
66
49
49
49
31
31
31
17
17
17
33
33
33
52
52
52
73
73
73
89
89
89
106
106
106
123
123
123
139
139
139
203
203
203
196
196
196
189
189
189
182
182
182
173
173
173
164
164
164
153
153
153
144
144
144
132
132
132
121
121
121
109
109
109
98
98
98
85
85
85
72
72
72
57
57
57
46
46
46
39
39
39
48
48
48
61
61
61
77
77
77
94
94
94
111
111
111
125
125
125
140
140
140
208
208
208
203
203
203
196
196
196
189
189
189
180
180
180
172
172
172
161
161
161
151
151
151
139
139
139
128
128
128
117
117
117
107
107
107
95
95
95
82
82
82
70
70
70
64
64
64
60
60
60
66
66
66
73
73
73
88
88
88
103
103
103
117
117
117
131
131
131
145
145
145
215
215
215
209
209
209
202
202
202
195
195
195
187
187
187
180
180
180
169
169
169
158
158
158
148
148
148
136
136
136
127
127
127
117
117
117
106
106
106
96
96
96
87
87
87
81
81
81
80
80
80
82
82
82
90
90
90
101
101
101
114
114
114
126
126
126
139
139
139
151
151
151
221
221
221
215
215
215
209
209
209
202
202
202
195
195
195
187
187
187
178
178
178
166
166
166
158
158
158
146
146
146
137
137
137
127
127
127
119
119
119
109
109
109
104
104
104
97
97
97
98
98
98
98
98
98
107
107
107
114
114
114
126
126
126
136
136
136
146
146
146
158
158
158
226
226
226
221
221
221
214
214
214
208
208
208
202
202
202
193
193
193
186
186
186
175
175
175
167
167
167
157
157
157
148
148
148
138
138
138
132
132
132
124
124
124
119
119
119
114
114
114
115
115
115
115
115
115
121
121
121
128
128
128
137
137
137
145
145
145
156
156
156
166
166
166
231
231
231
226
226
226
221
221
221
214
214
214
209
209
209
201
201
201
194
194
194
186
186
186
178
178
178
169
169
169
160
160
160
151
151
151
144
144
144
138
138
138
133
133
133
130
130
130
130
130
130
131
131
131
135
135
135
141
141
141
149
149
149
156
156
156
166
166
166
176
176
176
